<svg width="19" height="20" fill="none" xmlns="http://www.w3.org/2000/svg"><path d="M9.5 5.455c1.172 0 2.111-.819 2.111-1.819 0-.345-.105-.663-.306-.936L9.5 0 7.695 2.7c-.2.273-.306.59-.306.936 0 1 .95 1.819 2.111 1.819zm4.856 9.081l-1.13-.972-1.14.972c-1.372 1.182-3.779 1.191-5.162 0l-1.129-.972-1.15.972c-.687.591-1.605.918-2.576.918A4.09 4.09 0 010 14.9v4.19c0 .5.475.91 1.056.91h16.888c.581 0 1.056-.41 1.056-.91V14.9a4.09 4.09 0 01-2.069.554c-.971 0-1.89-.327-2.575-.918zm1.477-6.354h-5.277V6.364H8.444v1.818H3.167C1.414 8.182 0 9.4 0 10.909v1.4c0 .982.929 1.782 2.069 1.782.549 0 1.077-.182 1.457-.518l2.258-1.937 2.249 1.937c.78.672 2.143.672 2.924 0l2.259-1.937 2.248 1.937c.39.336.908.518 1.457.518 1.14 0 2.068-.8 2.068-1.782v-1.4C19 9.4 17.586 8.182 15.833 8.182z" fill="#F1F6F8"/></svg>