<svg width="25" height="25" fill="none" xmlns="http://www.w3.org/2000/svg"><path d="M18.209 25h.035c.66 0 1.283-.26 1.756-.733l3.39-3.39a1.25 1.25 0 000-1.767l-5-5a1.247 1.247 0 00-1.768 0l-1.992 1.992c-.924-.275-2.648-.9-3.74-1.992-1.093-1.093-1.718-2.817-1.993-3.74l1.992-1.993a1.249 1.249 0 000-1.768l-5-5a1.288 1.288 0 00-1.767 0l-3.39 3.39A2.498 2.498 0 000 6.793c.029 1.78.5 7.963 5.373 12.835 4.873 4.873 11.055 5.343 12.835 5.372zM5.007 4.26l3.232 3.233-1.616 1.616a1.245 1.245 0 00-.339 1.14c.03.144.764 3.553 2.84 5.628 2.074 2.075 5.483 2.809 5.627 2.839a1.242 1.242 0 001.14-.339l1.616-1.616 3.233 3.233-2.508 2.506c-1.56-.026-6.897-.445-11.091-4.64C2.933 13.652 2.525 8.295 2.5 6.767L5.006 4.26zM22.5 11.25H25C25 4.835 20.159 0 13.737 0v2.5c5.078 0 8.763 3.68 8.763 8.75z" fill="#6A759B"/><path d="M13.75 7.5c2.628 0 3.75 1.122 3.75 3.75H20C20 7.22 17.78 5 13.75 5v2.5z" fill="#6A759B"/></svg>