<svg width="25" height="24" fill="none" xmlns="http://www.w3.org/2000/svg"><path d="M20.313 22.5H18.75v-2.25a3.68 3.68 0 00-1.145-2.65 3.995 3.995 0 00-2.761-1.1h-4.688a3.995 3.995 0 00-2.76 1.1 3.68 3.68 0 00-1.146 2.65v2.25H4.687v-2.25a5.152 5.152 0 011.604-3.71A5.593 5.593 0 0110.156 15h4.688a5.59 5.59 0 013.865 1.54 5.152 5.152 0 011.604 3.71v2.25zM3.906 4.5a.798.798 0 00-.552.22.735.735 0 00-.229.53V12h1.563V5.25a.735.735 0 00-.23-.53.798.798 0 00-.552-.22z" fill="#F1F6F8"/><path d="M3.125 1.5V3h3.906v5.25c0 1.392.576 2.728 1.602 3.712A5.586 5.586 0 0012.5 13.5c1.45 0 2.841-.553 3.867-1.538a5.146 5.146 0 001.602-3.712V3h3.906V1.5H3.125zM8.594 3h7.812v2.25H8.594V3zm3.906 9a3.99 3.99 0 01-2.762-1.098A3.676 3.676 0 018.594 8.25v-1.5h7.812v1.5c0 .995-.411 1.948-1.144 2.652A3.99 3.99 0 0112.5 12z" fill="#F1F6F8"/></svg>