<svg width="26" height="25" fill="none" xmlns="http://www.w3.org/2000/svg"><path d="M12.917 25h6.458v-2.5h-6.458c-5.606 0-10.334-4.575-10.334-10s4.728-10 10.334-10 10.333 4.575 10.333 10v1.787c0 .988-.917 1.963-1.938 1.963-1.02 0-1.937-.975-1.937-1.963V12.5c0-3.45-2.893-6.25-6.458-6.25-3.565 0-6.459 2.8-6.459 6.25s2.894 6.25 6.459 6.25c1.782 0 3.41-.7 4.572-1.837.84 1.112 2.286 1.837 3.823 1.837 2.545 0 4.521-2 4.521-4.463V12.5c0-6.9-5.786-12.5-12.916-12.5C5.787 0 0 5.6 0 12.5S5.787 25 12.917 25zm0-8.75c-2.144 0-3.875-1.675-3.875-3.75s1.73-3.75 3.875-3.75c2.144 0 3.875 1.675 3.875 3.75s-1.731 3.75-3.875 3.75z" fill="#6A759B"/></svg>