<svg width="19" height="19" fill="none" xmlns="http://www.w3.org/2000/svg"><path d="M17.02 3.167h-1.714v1.055h1.583v11.611H2.11V4.223h1.583V3.166H1.98a.94.94 0 00-.923.955v11.812a.939.939 0 00.923.955h15.042a.94.94 0 00.923-.955V4.122a.94.94 0 00-.923-.955z" fill="#6A759B"/><path d="M4.222 7.389h1.056v1.055H4.222V7.39zm3.167 0h1.055v1.055H7.39V7.39zm3.167 0h1.055v1.055h-1.055V7.39zm3.166 0h1.056v1.055h-1.056V7.39zm-9.5 2.639h1.056v1.055H4.222v-1.055zm3.167 0h1.055v1.055H7.39v-1.055zm3.167 0h1.055v1.055h-1.055v-1.055zm3.166 0h1.056v1.055h-1.056v-1.055zm-9.5 2.639h1.056v1.055H4.222v-1.055zm3.167 0h1.055v1.055H7.39v-1.055zm3.167 0h1.055v1.055h-1.055v-1.055zm3.166 0h1.056v1.055h-1.056v-1.055zM5.278 5.278a.528.528 0 00.528-.528V1.583a.528.528 0 00-1.056 0V4.75a.528.528 0 00.528.528zm8.444 0a.528.528 0 00.528-.528V1.583a.528.528 0 10-1.056 0V4.75a.528.528 0 00.528.528zM6.861 3.167h5.278v1.055H6.86V3.167z" fill="#6A759B"/></svg>