<svg width="242" height="216" fill="none" xmlns="http://www.w3.org/2000/svg"><g clip-path="url(#clip0)"><path d="M175.693 122.213v59.494l10.53 16.218.801 1.234h41.547l.839-76.946h-53.717z" fill="#E6E6E6"/><path opacity=".1" d="M175.693 122.213v59.494l10.53 16.218.646-75.712h-11.176z" fill="#000"/><path d="M75.394 120.626v59.494l-10.53 16.219-.801 1.233H22.516l-.84-76.946h53.718z" fill="#E6E6E6"/><path opacity=".1" d="M75.394 120.626v59.494l-10.53 16.219-.646-75.713h11.176z" fill="#000"/><path d="M242 119.437v3.569H16.22v-5.156l20.984-10.313h186.331l18.465 11.9z" fill="#E6E6E6"/><path opacity=".1" d="M242 119.437v3.569H16.22v-5.156L242 119.437z" fill="#000"/><path d="M48.535 137.285H38.463l-4.197-2.777h18.885l-4.616 2.777zm0 11.502H38.463l-4.197-2.777h18.885l-4.616 2.777zm0 16.262H38.463l-4.197-2.777h18.885l-4.616 2.777zm0 16.261H38.463l-4.197-2.776h18.885l-4.616 2.776zm154.017-42.439h10.072l4.197-2.776h-18.885l4.616 2.776zm0 11.502h10.072l4.197-2.776h-18.885l4.616 2.776zm0 16.262h10.072l4.197-2.776h-18.885l4.616 2.776zm0 16.262h10.072l4.197-2.777h-18.885l4.616 2.777zm6.858-144.159h-84.791a3.37 3.37 0 00-1.228.231 3.225 3.225 0 00-1.04.657 3.019 3.019 0 00-.695.983 2.89 2.89 0 00-.244 1.16v53.983c0 .398.083.792.244 1.16.161.367.397.701.695.983.298.281.651.505 1.04.657.389.152.806.23 1.228.23h32.187l-1.206 7.277s-6.891 3.46-2.046 3.562c4.846.102 27.674 0 27.674 0s4.415 0-2.584-3.664l-1.134-7.174h31.9c.421 0 .838-.079 1.228-.231a3.225 3.225 0 001.04-.657c.298-.281.534-.616.695-.983a2.89 2.89 0 00.244-1.16V41.769a2.89 2.89 0 00-.244-1.16 3.019 3.019 0 00-.695-.983 3.225 3.225 0 00-1.04-.657 3.378 3.378 0 00-1.228-.23z" fill="#21273D"/><path d="M209.548 41.944h-85.067v44.982h85.067V41.944zm-42.534-.916c.298 0 .539-.228.539-.509 0-.28-.241-.508-.539-.508-.297 0-.538.227-.538.508s.241.51.538.51zm.001 55.567c1.13 0 2.046-.866 2.046-1.934s-.916-1.934-2.046-1.934-2.046.866-2.046 1.934.916 1.934 2.046 1.934z" fill="#F2F2F2"/><path d="M163.826 115.117v1.017h-57.931v-.814l.079-.203 1.428-3.664h55.24l1.184 3.664zm22.295-.997c-.106.427-.504.877-1.405 1.302-3.23 1.526-9.799-.407-9.799-.407s-5.061-.814-5.061-2.951c.143-.092.291-.176.444-.25 1.358-.679 5.861-2.355 13.846.071.588.175 1.114.5 1.518.94.179.167.314.371.393.596.079.225.101.465.064.699z" fill="#21273D"/><path opacity=".1" d="M186.12 114.12c-3.954 1.432-7.478 1.539-11.095-.835a8.258 8.258 0 00-4.725-1.471c1.358-.679 5.861-2.355 13.846.071.588.175 1.114.5 1.518.94.179.167.314.371.393.596.079.225.101.465.063.699z" fill="#000"/><path d="M181.163 113.285c.773 0 1.4-.183 1.4-.407 0-.225-.627-.407-1.4-.407-.773 0-1.4.182-1.4.407 0 .224.627.407 1.4.407z" fill="#F2F2F2"/><path opacity=".1" d="M163.826 115.117v1.017h-57.931v-.814l.079-.203h57.852z" fill="#000"/><path d="M32.21 0a3.05 3.05 0 00-1.687.356c-.503.325-.82.895-1.142 1.425a17.392 17.392 0 01-4.912 5.243c-1.46 1.01-3.315 2.27-3.065 4.133.132.616.372 1.206.711 1.745 1.347 2.569 5.02 4.554 4.66 7.485 1.337-2.117-.452-3.163.885-5.28.637-1.007 1.744-2.145 2.706-1.512.322.212.533.592.868.778.8.444 1.652-.405 2.36-1.005 2.442-2.072 5.915-1.53 8.954-.884 1.434.305 3.01.704 3.858 2 1.116 1.704-1.059 3.545-1.608 5.471a.993.993 0 00-.007.501c.041.165.124.319.24.447a1.16 1.16 0 00.959.358c.911-.085 1.992-.154 2.045-.532 1.148.038 2.554-.085 3.045-1.214.15-.446.23-.912.236-1.38.18-1.897 1.032-3.627 1.596-5.432.564-1.805.81-3.92-.143-5.521a6.48 6.48 0 00-1.247-1.433C46.119.807 39.015-.008 32.21 0z" fill="#21273D"/><path d="M27.95 24.09s1.175 9.254-3.134 9.995c-4.309.74 3.917 13.327 3.917 13.327l19.585 2.221-4.7-14.808s-3.134-1.11-1.176-8.515c1.959-7.404-14.493-2.22-14.493-2.22zM16.002 183.091l1.567 20.362h8.226l-2.35-20.362h-7.443zm60.323-38.501l1.175 17.03 9.01-3.702-3.526-14.068-6.66.74z" fill="#FFB8B8"/><path d="M10.127 105.349s.392 21.472 2.742 28.505c2.35 7.034 1.958 7.405 1.567 8.515-.392 1.111-.784.37-.784 2.221s-.783 31.097 0 33.689c.784 2.591-2.35 7.034 0 7.404 2.35.37 13.318 0 13.71-2.221.392-2.222-3.134-2.962-1.567-4.443 1.567-1.481 3.917-31.837 3.917-31.837l5.484-21.102 10.184-11.106h21.544l6.659 24.434s-2.742 7.033-.784 7.033c1.96 0 13.71 2.222 13.71-5.923 0-8.144-3.917-32.208-4.7-32.948-.784-.74.391-3.332-.784-4.442-1.175-1.111-14.884-8.885-19.977-10.366-5.092-1.48-12.235-3.243-12.235-3.243l-38.686 15.83zm76.383 49.607s-5.877-1.851-8.618 3.702c-2.742 5.553-1.567 7.034-1.567 7.034s9.009 2.962 10.576 1.481c.681-.645 2.846-.868 5.074-.916 3.394-.072 4.297-4.609 1.092-5.666a3.648 3.648 0 00-.29-.082c-3.134-.74-6.268-5.553-6.268-5.553z" fill="#21273D"/><path d="M36.763 30.198c6.49 0 11.751-4.973 11.751-11.106 0-6.134-5.261-11.106-11.751-11.106-6.49 0-11.751 4.972-11.751 11.106 0 6.133 5.26 11.106 11.75 11.106z" fill="#FFB8B8"/><path d="M21.487 38.712s19.193 3.702 23.894-2.22c4.7-5.924 6.659 16.658 6.659 16.658l2.35 23.693L50.864 89.8s-18.41 14.068-24.285 15.179c-5.876 1.11-14.885 1.851-14.885 1.851s2.742-41.093 2.742-41.833c0-.74 7.05-26.285 7.05-26.285z" fill="#B9D4F1" fill-opacity=".75"/><path d="M27.323 31.77s-4.27-2.313-5.445-.091c-1.175 2.22-12.143 7.774-13.318 7.774-1.175 0 2.35 30.727.784 34.429-1.567 3.702-9.01 30.727-4.7 32.948 4.308 2.221 1.174-2.221 5.483 3.332 4.309 5.553 25.46 5.553 26.636 3.331 1.175-2.221-9.401-18.88-7.443-34.428 1.959-15.549 5.093-37.02 2.35-39.982-2.741-2.962-4.347-7.314-4.347-7.314zm14.14 2.5l.546-1.775s16.297 5.107 17.08 8.439c.784 3.331.392 26.654-2.35 28.505-2.741 1.851-6.658 4.813-3.916 9.255 2.742 4.443 5.875 9.255 8.225 9.626 2.35.37 6.66 2.961 5.484 5.553-1.175 2.591-15.276-2.222-15.276-2.222s-9.401-6.663-9.01-17.029c.392-10.366-.783-40.352-.783-40.352z" fill="#21273D"/><path d="M55.173 77.954l-9.401 16.659s-13.71 13.327-5.876 14.808c7.834 1.481 12.143-12.217 12.143-12.217l10.184-13.697-7.05-5.553z" fill="#FFB8B8"/><path d="M32.783 2.906a2.8 2.8 0 00-1.374.252c-.385.266-.703.61-.93 1.007a13.209 13.209 0 01-3.998 3.706c-1.188.714-2.698 1.604-2.495 2.921.11.442.307.86.58 1.233a9.254 9.254 0 011.246 6.047l3.267-4.488c.519-.712 1.42-1.516 2.202-1.069.262.15.435.418.707.55.652.314 1.345-.286 1.921-.71 1.988-1.465 4.815-1.082 7.29-.625 1.167.215 2.45.498 3.14 1.414 1.148 1.522-.05 3.721.62 5.48a1.66 1.66 0 00.467-.466c.122-.183.203-.388.24-.601.933.027 2.078-.06 2.478-.857.121-.313.186-.643.192-.976.146-1.34.84-2.564 1.299-3.84.46-1.275.659-2.77-.116-3.902a4.847 4.847 0 00-1.015-1.012c-4.399-3.493-10.182-4.07-15.72-4.064zm22.39 36.547l3.65.915s8.493 20.556 6.534 34.624C63.4 89.06 62.224 86.098 62.224 86.098s-3.134-6.663-10.185-5.183l3.134-41.462zM16.545 200.762c-.944 1.213-.755 2.947-1.592 4.229-.725 1.111-2.092 1.694-2.999 2.678-.29.328-.548.678-.771 1.049-.842 1.332-1.526 3.039-.697 4.379.667 1.077 2.068 1.498 3.354 1.785 1.624.363 3.312.653 4.955.376 1.643-.277 3.25-1.228 3.835-2.705.116-.372.252-.737.41-1.094.891-1.657 3.685-1.675 4.596-3.322.638-1.153.052-2.546-.534-3.723l-1.79-3.594c-.595-1.193-3.003-.507-4.259-.793-1.637-.373-3.33-.783-4.508.735z" fill="#21273D"/><path d="M3.468 85.358L19.92 109.42s10.184 12.217 13.317 6.664c3.134-5.553-10.967-14.808-10.967-14.808l-10.576-18.51-8.226 2.59z" fill="#FFB8B8"/><path d="M11.694 40.193l-3.134-.74s-6.267 1.85-7.834 9.625C-.84 56.852.334 87.949 2.293 88.32c1.958.37 9.673-5.415 10.908-4.189 1.235 1.227-2.682-5.067-1.507-8.398 1.175-3.332 0-35.54 0-35.54z" fill="#21273D"/><path d="M158.963 56.718h-10.124v2.303h10.124v-2.303zm35.059 0h-3.562v2.303h3.562v-2.303zm7.124 0h-3.562v2.303h3.562v-2.303zm-14.436 0h-24.185v2.303h24.185v-2.303zm-40.496 14.884H136.09v2.303h10.124v-2.303zm35.059 0h-3.562v2.303h3.562v-2.303zm7.124 0h-3.562v2.303h3.562v-2.303zm-14.436 0h-24.185v2.303h24.185v-2.303zm14.061-9.746h-10.124v2.304h10.124v-2.304zm13.686 0h-10.124v2.304h10.124v-2.304zm-62.056 0h-3.562v2.304h3.562v-2.304zm7.125 0h-3.563v2.304h3.563v-2.304zm27.747 0h-24.186v2.304h24.186v-2.304zm-7.499 4.962h-10.124v2.303h10.124v-2.303zm-13.687 0h-10.124v2.303h10.124v-2.303zm-13.686 0h-3.562v2.303h3.562v-2.303zm62.057 0h-3.563v2.303h3.563v-2.303zm-7.125 0h-24.185v2.303h24.185v-2.303z" fill="#B9D4F1" fill-opacity=".75"/></g><defs><clipPath id="clip0"><path fill="#fff" d="M0 0h242v215.368H0z"/></clipPath></defs></svg>