<svg width="350" height="204" fill="none" xmlns="http://www.w3.org/2000/svg"><path fill="#21273D" d="M230 0h120v3H230zM0 201h120v3H0zM271 12h79v3h-79zM0 189h79v3H0zM296 24h54v3h-54zM0 177h54v3H0z"/><g filter="url(#filter0_d)"><path d="M238.558 72.837c-.227-3.6-2.44-7.713-11.074-8.37l-20.331-1.455c-1.383-4.279-4.83-7.485-7.959-9.245-.42-.974-1.175-1.827-2.174-2.458-.999-.631-2.2-1.013-3.458-1.1l-39.486-2.69a7.908 7.908 0 00-3.056.39c-.966.327-1.823.838-2.499 1.49l-1.475.563c-3.202 1.223-6.953 3.966-7.588 10.049-6.803.647-15.051 1.431-19.681 1.869-4.055.383-6.489 4.644-7.034 5.666l-.018-.002v.03c-3.146 5.931-3.369 16.862 0 23.106v33.445c0 5.338 3.952 10.45 8.901 11.43l84.071 16.693c.85.17 1.678.252 2.477.252 2.601 0 4.889-.875 6.597-2.364-.038.033-.062.073-.1.105v.017a50.967 50.967 0 014.799-2.985v.019s18.882.327 19.216-5.847l.032-.002v-.157s-.066-67.984-.16-68.45zm-45.287-16.678c.222-.933 1.139-1.94 2.224-1.94.233 0 .477.045.723.14 3.791 1.447 9.436 5.974 9.481 12.391-.139.14-.946.404-2.256.404-1.31 0-2.115-.264-2.211-.281 0-5.231-4.607-8.156-7.045-8.973-1.079-.36-1.038-1.246-.916-1.741zm-44.206.69c1.069.821 2.446 1.324 3.909 1.428l39.492 2.686a7.77 7.77 0 002.973-.38 9.392 9.392 0 011.916 1.724l-46.815-3.352-2.959.282c.313-.925.803-1.73 1.484-2.389zm-3.203-4.251c-.075 1.251.321 2.486 1.128 3.561-1.267 1.431-1.926 3.267-1.969 5.467-.263.095-.865.22-1.768.22-.895 0-1.494-.124-1.76-.218.052-4.158 1.518-7.184 4.369-9.03zM115.913 87.68c-2.637-7.009-1.019-16.816 1.462-19.913l4.566.385 89.765 7.95c-1.207 4.489-1.28 11.261-.204 20.253-.07 3.704-2.673 6.378-6.237 6.378-.313 0-32.964-4.15-32.964-4.15v-8.056l-22.654-2.48-2.325 7.344s-22.1-2.447-27.749-3.506c-1.496-.28-2.896-2.172-3.66-4.205zm50.683 14.88l-18.747-2.41 3.397-10.736 18.75 2.053-3.4 11.093zm3.329 10.26l-18.632-2.745-3.378-7.91 18.634 2.394 3.376 8.261zm43.63 30.356c0 3.43-2.213 5.824-5.381 5.824-.471 0-85.54-16.844-85.54-16.844-2.662-.528-5.629-3.955-5.629-8.029V96.861c.826 1.715 4.069 2.705 4.979 2.828l24.403 3.303 3.256 7.637 22.652 3.339v-7.469l33.76 4.57c2.684.362 5.321-.198 7.537-1.385l-.037 33.492zm15.002-73.82l-10.633 3.775-99.442-8.806c.627-.375 1.224-.655 1.612-.713l19.261-1.84-.002.08c0 1.092 1.46 1.745 3.9 1.745 2.447 0 3.904-.653 3.904-1.745 0-.292.043-.557.067-.835l3.234-.31 48.042 3.439c.358.817.583 1.722.583 2.727 0 1.233 1.71 2.031 4.356 2.031 2.643 0 4.352-.798 4.352-2.031 0-.715-.073-1.404-.189-2.074l19.683 1.408c3.057.233 5.309.953 6.829 2.146-1.372-.166-3.168.046-5.557 1.003z" fill="#21273D"/></g><defs><filter id="filter0_d" x="102" y="44" width="145" height="120" filterUnits="userSpaceOnUse" color-interpolation-filters="sRGB"><feFlood flood-opacity="0" result="BackgroundImageFix"/><feColorMatrix in="SourceAlpha" values="0 0 0 0 0 0 0 0 0 0 0 0 0 0 0 0 0 0 127 0"/><feOffset dy="4"/><feGaussianBlur stdDeviation="2"/><feColorMatrix values="0 0 0 0 0 0 0 0 0 0 0 0 0 0 0 0 0 0 0.25 0"/><feBlend in2="BackgroundImageFix" result="effect1_dropShadow"/><feBlend in="SourceGraphic" in2="effect1_dropShadow" result="shape"/></filter></defs></svg>