<svg width="0" height="0" class="hidden"><symbol fill="none" xmlns="http://www.w3.org/2000/svg" viewBox="0 0 34 28" id="sass"><path d="M29.256 16.117a6.511 6.511 0 00-3.072.781c-.316-.686-.631-1.298-.687-1.747-.062-.524-.136-.843-.062-1.469.074-.626.409-1.517.402-1.585-.006-.067-.074-.387-.755-.394-.681-.007-1.27.143-1.338.34a8.824 8.824 0 00-.285 1.109c-.117.68-1.362 3.107-2.074 4.379-.23-.496-.428-.932-.471-1.278-.062-.524-.136-.844-.062-1.47.075-.625.409-1.516.403-1.584-.006-.068-.075-.387-.756-.394-.681-.007-1.27.143-1.338.34-.068.197-.142.66-.284 1.108-.143.45-1.796 4.502-2.23 5.55a32.63 32.63 0 01-.551 1.257s-.006.02-.025.055c-.06.13-.122.259-.186.387v.007c-.093.184-.192.354-.241.354-.037 0-.105-.49.012-1.156.248-1.408.836-3.598.83-3.672 0-.041.111-.422-.384-.62-.483-.197-.656.13-.7.13-.043 0-.074.115-.074.115s.539-2.46-1.028-2.46c-.979 0-2.329 1.176-2.998 2.237-.76.454-1.52.91-2.279 1.367-.365.224-.743.449-1.096.66-.025-.027-.05-.062-.074-.089-1.895-2.223-5.4-3.794-5.252-6.78.056-1.088.397-3.944 6.732-7.412 5.214-2.822 9.364-2.04 10.082-.306 1.028 2.475-2.223 7.072-7.611 7.739-2.056.251-3.134-.62-3.406-.946-.285-.34-.328-.36-.434-.292-.173.102-.062.408 0 .585.161.462.824 1.278 1.945 1.68.99.353 3.4.55 6.317-.687 3.264-1.387 5.815-5.243 5.066-8.473C20.542.204 15.588-.878 10.9.952 8.113 2.04 5.09 3.754 2.917 5.984.334 8.636-.074 10.941.093 11.907c.6 3.428 4.905 5.658 6.627 7.31a8.475 8.475 0 01-.236.143c-.86.47-4.143 2.353-4.96 4.346-.93 2.257.148 3.876.86 4.093 2.211.674 4.484-.537 5.704-2.536 1.22-2 1.072-4.597.508-5.787a.13.13 0 00-.025-.041L9.246 19c.41-.266.825-.522 1.245-.769-.21.633-.365 1.388-.44 2.476-.093 1.278.384 2.937 1.01 3.59.279.286.607.293.817.293.731 0 1.06-.667 1.425-1.456.446-.965.848-2.087.848-2.087s-.501 3.033.861 3.033c.495 0 .997-.708 1.22-1.068v.007l.037-.068.08-.143v-.014c.199-.38.645-1.244 1.308-2.679.854-1.85 1.678-4.162 1.678-4.162s.074.565.328 1.503c.149.551.458 1.156.706 1.741a11.43 11.43 0 01-.322.476l.006.007c-.16.231-.334.483-.526.728-.675.883-1.48 1.897-1.592 2.19-.13.346-.099.598.149.802.18.15.501.17.83.15a3.535 3.535 0 001.244-.314 4.06 4.06 0 001.072-.619c.663-.537 1.065-1.305 1.028-2.318-.019-.558-.186-1.116-.39-1.64.062-.094.117-.19.18-.285 1.046-1.68 1.857-3.522 1.857-3.522s.075.564.329 1.503c.123.476.377.992.6 1.495-.984.878-1.591 1.898-1.808 2.564-.39 1.238-.087 1.795.49 1.925.26.06.63-.075.903-.204a3.992 3.992 0 001.146-.646c.663-.538 1.3-1.286 1.263-2.299a4.705 4.705 0 00-.284-1.36c.836-.38 1.913-.591 3.288-.415 2.948.381 3.53 2.4 3.419 3.251-.112.85-.731 1.312-.935 1.455-.205.143-.273.19-.254.293.024.15.123.142.297.115.241-.047 1.548-.687 1.604-2.25.093-2-1.641-4.183-4.707-4.162zm-22.74 8.418c-.98 1.17-2.342 1.612-2.93 1.238-.632-.401-.384-2.129.817-3.366.731-.755 1.672-1.456 2.298-1.884.142-.095.353-.231.607-.401l.068-.041.149-.102c.44 1.768.018 3.325-1.01 4.556zm7.121-5.318c-.34.912-1.053 3.244-1.486 3.115-.372-.109-.6-1.877-.074-3.625.266-.877.83-1.924 1.158-2.332.532-.653 1.12-.87 1.263-.605.18.347-.65 2.876-.86 3.447zm5.878 3.088c-.143.081-.28.136-.341.095-.043-.027.062-.136.062-.136s.737-.87 1.028-1.265c.167-.231.365-.503.576-.81v.09c0 1.04-.917 1.74-1.326 2.026zm4.533-1.136c-.106-.082-.087-.354.266-1.204.136-.333.458-.89 1.01-1.428.061.218.105.429.099.626-.007 1.313-.861 1.802-1.375 2.006z" fill="#CD6799"/></symbol><symbol fill="none" xmlns="http://www.w3.org/2000/svg" viewBox="0 0 34 34" id="scss"><path fill-rule="evenodd" clip-rule="evenodd" d="M17 2.125a14.875 14.875 0 110 29.75 14.875 14.875 0 010-29.75z" fill="#C69"/><path d="M26.331 8.491c-.674-2.641-5.054-3.506-9.2-2.037a20.83 20.83 0 00-7.06 4.049c-2.283 2.135-2.647 3.995-2.497 4.771.531 2.742 4.285 4.533 5.829 5.862v.008c-.455.224-3.787 1.912-4.57 3.633-.821 1.82.132 3.124.764 3.3a4.675 4.675 0 005.045-2.046 5.126 5.126 0 00.501-4.556 5.99 5.99 0 012.277-.13c2.61.304 3.122 1.933 3.024 2.615a1.72 1.72 0 01-.828 1.17c-.183.113-.239.151-.223.236.022.122.106.118.262.091a2.035 2.035 0 001.42-1.813c.063-1.594-1.468-3.385-4.18-3.34a7.157 7.157 0 00-2.326.319 6.286 6.286 0 00-.115-.128c-1.676-1.788-4.774-3.053-4.644-5.458.048-.874.352-3.175 5.95-5.968 4.59-2.287 8.264-1.657 8.9-.262.907 1.993-1.964 5.696-6.73 6.23a3.581 3.581 0 01-3.01-.762c-.25-.277-.288-.288-.381-.237-.152.084-.056.328 0 .473a2.824 2.824 0 001.722 1.353 9.129 9.129 0 005.586-.552c2.891-1.115 5.146-4.223 4.484-6.82zM14.044 21.954a3.809 3.809 0 01-.112 2.446 4.155 4.155 0 01-.784 1.214c-.864.943-2.072 1.3-2.59 1-.559-.325-.28-1.654.723-2.713a10.073 10.073 0 012.628-1.872l.135-.075z" fill="#fff"/></symbol><symbol fill="none" xmlns="http://www.w3.org/2000/svg" viewBox="0 0 31 31" id="js"><path d="M0 0h31v31H0V0z" fill="#F7DF1E"/><path d="M8.151 25.906l2.373-1.436c.457.812.874 1.498 1.872 1.498.957 0 1.561-.374 1.561-1.83v-9.906h2.913v9.947c0 3.017-1.769 4.39-4.349 4.39-2.33 0-3.683-1.207-4.37-2.663m10.301-.313l2.372-1.373c.625 1.02 1.436 1.769 2.872 1.769 1.207 0 1.977-.604 1.977-1.436 0-.999-.79-1.353-2.123-1.935l-.728-.313c-2.102-.894-3.496-2.018-3.496-4.39 0-2.185 1.665-3.85 4.266-3.85 1.852 0 3.184.645 4.141 2.33l-2.268 1.458c-.5-.895-1.04-1.249-1.873-1.249-.853 0-1.394.541-1.394 1.249 0 .874.54 1.227 1.79 1.769l.727.312c2.477 1.061 3.871 2.143 3.871 4.578 0 2.622-2.06 4.057-4.828 4.057-2.705 0-4.453-1.29-5.306-2.975" fill="#000"/></symbol><symbol fill="none" xmlns="http://www.w3.org/2000/svg" viewBox="0 0 34 34" id="github"><path d="M16.987 2.533C8.776 2.53 2.125 9.177 2.125 17.382c0 6.488 4.16 12.003 9.954 14.028.78.196.661-.358.661-.737V28.1c-4.506.528-4.688-2.454-4.99-2.952-.611-1.043-2.056-1.308-1.624-1.806 1.026-.528 2.072.133 3.284 1.922.876 1.298 2.586 1.08 3.453.864.19-.78.594-1.478 1.152-2.02-4.668-.836-6.614-3.685-6.614-7.072 0-1.643.541-3.154 1.604-4.372-.678-2.01.063-3.73.162-3.985 1.93-.172 3.935 1.381 4.091 1.504 1.096-.295 2.348-.451 3.749-.451 1.407 0 2.662.162 3.768.461.375-.285 2.235-1.62 4.028-1.457.096.255.82 1.935.182 3.918 1.076 1.222 1.624 2.745 1.624 4.392 0 3.394-1.959 6.246-6.64 7.07a4.234 4.234 0 011.264 3.02v3.736c.027.299 0 .595.498.595 5.88-1.983 10.114-7.538 10.114-14.082 0-8.208-6.654-14.852-14.858-14.852z" fill="#21273D"/></symbol><symbol fill="none" xmlns="http://www.w3.org/2000/svg" viewBox="0 0 38 36" id="html5"><path d="M7.008 30.601L4.34 2.25h29.32l-2.672 28.347-12.006 3.153-11.974-3.149z" fill="#E44F26"/><path d="M19 31.34l9.702-2.548L30.984 4.57H19v26.77z" fill="#F1662A"/><path d="M19 15.083h-4.857l-.335-3.56H19V8.044H9.797l.088.934.901 9.581H19v-3.477zm0 9.03l-.016.005-4.088-1.045-.261-2.773H10.95l.514 5.458 7.52 1.978.016-.005v-3.618z" fill="#EBEBEB"/><path d="M18.987 15.083v3.477h4.52l-.426 4.51-4.094 1.047v3.618l7.525-1.977.054-.587.863-9.154.09-.934h-8.532zm0-7.038v3.477h8.865l.074-.78.168-1.763.087-.934h-9.194z" fill="#fff"/></symbol><symbol fill="none" xmlns="http://www.w3.org/2000/svg" viewBox="0 0 33 66" id="gulp"><path d="M25.419 63.95l.686-10.874L28 50s-4.313 1.678-11.533 1.678S5 50.03 5 50.03l2.124 3.355.75 10.564c0 1.132 3.928 2.05 8.773 2.05s8.772-.918 8.772-2.05zm-2.177-49.022l1.476-5.353 8.173-7.891L30.737 0l-8.653 8.407-1.713 6.395c-1.29-.04-2.58-.06-3.87-.059C7.386 14.743 0 15.696 0 16.872 0 18.047 7.387 19 16.5 19S33 18.047 33 16.872c0-.866-4.006-1.611-9.758-1.944z" fill="#D34A47"/><path d="M22.283 17.913s-.323.082-1.275.086c-.951.005-1.627-.007-1.896-.284a.518.518 0 01-.112-.323c0-.19.12-.302.273-.373l.144.256c-.063.024-.099.053-.099.084 0 .145.973.244 1.718.233.745-.01 1.645-.08 1.646-.222 0-.043-.068-.084-.187-.116L22.64 17c.193.068.361.199.361.425-.002.386-.435.444-.717.488z" fill="#fff"/><path d="M25.28 38.09c-.196-1.649 4.13-4.037 3.02-4.113-2.39.119-3.58 2.446-4.783 4.883-.44.893-1.948 4.701-2.937 4.233-.989-.47 1.282-3.6 1.918-5.46-.734.47-3.427 2.297-4.121.585-1.116.828-3.5 1.276-3.231-.898-.594.919-1.926 2.2-3.525 1.668-2.1-.7 1.217-6.541 2.042-6.247.825.295-.167 1.626-.426 2.143-.571 1.137-1.231 2.567-.79 2.86.755.5 2.809-1.898 2.855-1.95.384-.444 1.478-3.344 2.36-3.01.883.332-2.2 4.161-1.047 4.921.232.154 1.183-.094 1.762-.64.374-.355.246-1.138 1.494-3.737 1.247-2.599 2.36-5.836 3.216-5.589.855.246.15 1.908-.157 2.527-1.44 2.907-3.932 7.708-2.757 7.345 1.175-.364 1.786-.385 2.937-1.56 1.15-1.177 1.098-3.113 1.864-3.072.767.041.639.662.453 1.135.754-.754 3.577-2.343 4.259-.77.807 1.863-4.039 4.554-2.83 4.416 1.177-.133 3.086-1.189 3.9-2.149L33 18s-2.257 1.631-16.617 1.631C2.023 19.631 0 18.034 0 18.034l1.91 16.075c1.013-2.516 3.42-7.605 7.214-7.434 1.726.077 4.03 2.98 2.057 3.078-.836.041-.92-1.449-1.91-1.668-.714-.158-1.707.35-2.35.898-1.28 1.095-4.035 5.415-3.671 7.568.463 2.745 4.338-.954 4.993-2.052.462-.774.774-3.066 1.783-2.826 1.01.24-.088 2.606-.82 4.698-.822 2.348-1.254 4.826-2.285 4.541-1.03-.285.649-3.317.588-3.848-.969.78-2.754 2.757-5.037 1.779l1.186 9.982S6.81 51 16.305 51c9.496 0 12.765-2.141 12.765-2.141l1.472-11.562c-1.205 1.025-5.018 2.844-5.262.793z" fill="#D34A47"/></symbol><symbol fill="none" xmlns="http://www.w3.org/2000/svg" viewBox="0 0 41 37" id="css"><path d="M7.562 31.451L4.684 2.312h31.631l-2.881 29.134-12.954 3.241-12.918-3.236z" fill="#1572B6"/><path d="M20.5 32.21l10.468-2.618L33.43 4.696H20.5V32.21z" fill="#33A9DC"/><path d="M20.5 15.252h5.24l.362-3.66H20.5V8.02h9.93l-.095.958-.973 9.85H20.5v-3.575z" fill="#fff"/><path d="M20.525 24.533l-.018.005-4.41-1.075-.282-2.85H11.84l.555 5.61 8.112 2.033.019-.004v-3.719z" fill="#EBEBEB"/><path d="M25.403 18.674l-.476 4.786-4.417 1.075v3.719l8.118-2.03.06-.604.688-6.946h-3.973z" fill="#fff"/><path d="M20.514 8.019v3.574h-9.566l-.079-.804-.18-1.812-.095-.958h9.92zm-.014 7.233v3.574h-4.355l-.08-.804-.179-1.811-.095-.959h4.71z" fill="#EBEBEB"/></symbol></svg>